#!OML:ASF E:\Style4\Style4.ASF
:FULLY-SPECIFIED
:DEGREES
2692
root 0.22914 16.9659 -0.598467 -2.42481 -7.60969 4.44708
lowerback 15.0348 2.08038 -1.90371
upperback 9.1147 2.46643 0.549761
thorax 1.11852 1.13315 1.30619
lowerneck 1.26195 -2.54464 -5.1834
upperneck 0.694278 -3.45668 1.30855
head 0.118974 -1.74016 1.27392
rclavicle 2.62396e-014 -4.77083e-015
rhumerus -12.2213 15.9809 -87.3824
rradius 120.143
rwrist 25.961
rhand 27.1977 -6.32239
rfingers 7.12502
rthumb 51.1708 -26.908
lclavicle 2.62396e-014 -4.77083e-015
lhumerus -3.27167 -20.4027 88.3296
lradius 125.085
lwrist -17.0696
lhand 24.3758 41.659
lfingers 7.12502
lthumb 48.5875 63.593
rfemur -22.2047 1.01072 13.4198
rtibia 51.4561
rfoot -24.4458 -14.956
rtoes -18.1349
lfemur -17.6367 4.60231 -23.5504
ltibia 47.4674
lfoot -27.0635 12.9406
ltoes -17.238
2693
root 0.226838 16.9638 -0.596063 -2.46785 -7.53784 4.50677
lowerback 15.0383 2.08005 -1.9715
upperback 9.11047 2.45795 0.522543
thorax 1.11124 1.12724 1.3168
lowerneck 1.35008 -2.63929 -5.1837
upperneck 0.635635 -3.58778 1.25574
head 0.0895541 -1.80499 1.25896
rclavicle -5.4467e-014 1.35174e-014
rhumerus -12.1431 15.8785 -87.3928
rradius 120.161
rwrist 26.0378
rhand 27.2264 -6.50104
rfingers 7.12502
rthumb 51.1969 -27.0719
lclavicle -5.4467e-014 1.35174e-014
lhumerus -3.45348 -20.3377 88.4114
lradius 125.185
lwrist -17.1782
lhand 24.359 41.5943
lfingers 7.12502
lthumb 48.572 63.5357
rfemur -22.1595 0.923902 13.358
rtibia 51.5154
rfoot -24.5312 -14.8743
rtoes -17.4499
lfemur -17.58 4.56344 -23.6089
ltibia 47.4642
lfoot -27.0263 12.9351
ltoes -17.3231
2694
root 0.223766 16.9621 -0.592972 -2.45662 -7.48842 4.51092
lowerback 14.9602 2.09165 -2.00503
upperback 9.10433 2.47146 0.51953
thorax 1.14412 1.13272 1.33298
lowerneck 1.39025 -2.7319 -5.23508
upperneck 0.641714 -3.71398 1.28056
head 0.090415 -1.86835 1.27616
rclavicle -5.36719e-014 -7.15625e-015
rhumerus -12.0492 15.7263 -87.3411
rradius 120.241
rwrist 26.2722
rhand 27.5672 -6.53413
rfingers 7.12502
rthumb 51.507 -26.9281
lclavicle -5.36719e-014 -7.15625e-015
lhumerus -3.68643 -20.3156 88.5908
lradius 125.35
lwrist -17.2589
lhand 24.3853 41.5938
lfingers 7.12502
lthumb 48.5962 63.5236
rfemur -22.1606 0.851036 13.3624
rtibia 51.555
rfoot -24.5445 -14.835
rtoes -16.9963
lfemur -17.5733 4.54276 -23.6051
ltibia 47.4522
lfoot -26.9699 12.971
ltoes -17.8301
2695
root 0.219391 16.9605 -0.589844 -2.43788 -7.43433 4.45347
lowerback 14.7374 2.13183 -2.07696
upperback 9.18236 2.52256 0.600059
thorax 1.33647 1.15098 1.45943
lowerneck 1.45482 -2.83029 -5.24511
upperneck 0.552122 -3.84922 1.21193
head 0.0553398 -1.93472 1.25798
rclavicle -3.81667e-014 1.11319e-014
rhumerus -11.8237 15.5242 -87.1347
rradius 120.329
rwrist 26.6342
rhand 27.9878 -6.28035
rfingers 7.12502
rthumb 51.8891 -26.4517
lclavicle -3.81667e-014 1.11319e-014
lhumerus -3.66488 -20.2567 88.7852
lradius 125.433
lwrist -17.261
lhand 24.479 41.6957
lfingers 7.12502
lthumb 48.6824 63.5837
rfemur -22.1444 0.778014 13.4482
rtibia 51.5642
rfoot -24.5677 -14.8416
rtoes -17.1597
lfemur -17.5873 4.52207 -23.5174
ltibia 47.4624
lfoot -26.9453 12.9099
ltoes -18.0482
2696
root 0.215352 16.961 -0.587455 -2.4258 -7.32638 4.42376
lowerback 14.5478 2.13724 -2.17163
upperback 9.25862 2.52483 0.665716
thorax 1.51135 1.14417 1.58878
lowerneck 1.40107 -2.90145 -5.27092
upperneck 0.593731 -3.94092 1.14485
head 0.0793115 -1.98098 1.23969
rclavicle 4.6118e-014 -3.97569e-015
rhumerus -11.6058 15.4528 -86.9955
rradius 120.357
rwrist 26.881
rhand 28.2019 -6.08066
rfingers 7.12502
rthumb 52.0834 -26.1367
lclavicle 4.6118e-014 -3.97569e-015
lhumerus -3.54434 -20.1066 88.865
lradius 125.439
lwrist -17.1759
lhand 24.4267 41.7276
lfingers 7.12502
lthumb 48.6343 63.6389
rfemur -22.1157 0.643355 13.4876
rtibia 51.5606
rfoot -24.7358 -14.6404
rtoes -16.4079
lfemur -17.5933 4.46844 -23.4571
ltibia 47.4626
lfoot -26.9255 12.8303
ltoes -18.1505
2697
root 0.209306 16.962 -0.584465 -2.42504 -7.14944 4.33806
lowerback 14.7155 2.07842 -2.02737
upperback 9.11759 2.46012 0.580093
thorax 1.28392 1.12395 1.41853
lowerneck 1.37918 -2.93795 -5.17497
upperneck 0.846356 -3.98494 1.13905
head 0.160212 -2.00615 1.2183
rclavicle -1.55052e-014 -1.11319e-014
rhumerus -11.785 15.4373 -87.2461
rradius 120.447
rwrist 26.9894
rhand 28.3049 -6.11509
rfingers 7.12502
rthumb 52.1767 -26.1152
lclavicle -1.55052e-014 -1.11319e-014
lhumerus -3.79967 -19.9591 88.78
lradius 125.463
lwrist -17.0661
lhand 24.4593 41.6399
lfingers 7.12502
lthumb 48.6643 63.5368
rfemur -22.0279 0.477409 13.6005
rtibia 51.5321
rfoot -24.7894 -14.632
rtoes -15.718
lfemur -17.5749 4.36468 -23.3245
ltibia 47.461
lfoot -26.9197 12.6386
ltoes -17.9578
2698
root 0.200539 16.9614 -0.58206 -2.44341 -6.90354 4.27799
lowerback 15.0332 2.0001 -1.83373
upperback 8.88794 2.37215 0.41616
thorax 0.888949 1.09757 1.13594
lowerneck 1.53772 -2.9419 -4.94258
upperneck 1.00361 -3.99416 1.1023
head 0.176882 -2.01225 1.16796
rclavicle 3.57812e-015 -2.8625e-014
rhumerus -12.1133 15.4133 -87.6233
rradius 120.552
rwrist 27.098
rhand 28.2793 -6.10588
rfingers 7.12502
rthumb 52.1535 -26.1199
lclavicle 3.57812e-015 -2.8625e-014
lhumerus -4.19685 -19.8971 88.6216
lradius 125.515
lwrist -16.8387
lhand 24.054 41.6898
lfingers 7.12502
lthumb 48.2912 63.7657
rfemur -21.904 0.254577 13.6874
rtibia 51.4961
rfoot -24.7667 -14.7563
rtoes -15.6639
lfemur -17.5376 4.23068 -23.2077
ltibia 47.4427
lfoot -26.8931 12.3398
ltoes -17.4186
